# xmcd
#
# Track frame offsets: 
#        150
#        12799
#        25457
#        38397
#        52719
#        66253
#        81177
#        95683
#        110343
#        123706
#        135492
#        146123
#        159214
#        171043
#        185102
#        196726
#        209615
#        222952
#        236271
#        248529
#        260085
#        273079
#
# Disc length: 3791 seconds
#
# Revision: 1
# Processed by: cddbd v1.5.2PL0 Copyright (c) Steve Scherf et al.
# Submitted via: ExactAudioCopy v0.95b4
#
DISCID=300ecd16
DTITLE=Hines, Earl 'Fatha'  - Jazz Piano Masters - CD 4
DYEAR=1950
DGENRE=Jazz
TTITLE0=Chicago High Life
TTITLE1=Stowaway
TTITLE2=Panther Rag
TTITLE3=Just too soon
TTITLE4=Caution Blues
TTITLE5=A Monday Date
TTITLE6=I Ain't Got Nobody
TTITLE7=Fifty-Seven Varieties
TTITLE8=Glad Rag Doll
TTITLE9=Love Me Tonight
TTITLE10=Down Among The Sheltering Palms
TTITLE11=Rhythm Sunday
TTITLE12=Pianology
TTITLE13=Rosetta
TTITLE14=Piano Man
TTITLE15=Body and Soul
TTITLE16=Tantalizing A Cuban
TTITLE17=Blues in Thirds
TTITLE18=G.T. Stomp
TTITLE19=On The Sunny Side Of The Street
TTITLE20=Blue Keys
TTITLE21=My Melancholy Baby
EXTD=YEAR: 1950
EXTT0=
EXTT1=
EXTT2=
EXTT3=
EXTT4=
EXTT5=
EXTT6=
EXTT7=
EXTT8=
EXTT9=
EXTT10=
EXTT11=
EXTT12=
EXTT13=
EXTT14=
EXTT15=
EXTT16=
EXTT17=
EXTT18=
EXTT19=
EXTT20=
EXTT21=
PLAYORDER=
